<svg xmlns="http://www.w3.org/2000/svg" width="24" height="24" viewBox="0 0 24 24">
  <g id="_3lineweight" data-name="3lineweight" transform="translate(24 24) rotate(180)">
    <path id="Caminho_1" data-name="Caminho 1" d="M0,0H24V24H0Z" fill="none"/>
    <path id="Caminho_2" data-name="Caminho 2" d="M20,15H4a1,1,0,0,0,0,2H20a1,1,0,0,0,0-2Zm0-5H4a1,1,0,0,0-1,1v1a1,1,0,0,0,1,1H20a1,1,0,0,0,1-1V11A1,1,0,0,0,20,10Zm0-6H4A1,1,0,0,0,3,5V7A1,1,0,0,0,4,8H20a1,1,0,0,0,1-1V5A1,1,0,0,0,20,4Zm.5,15H3.5a.5.5,0,0,0,0,1h17a.5.5,0,0,0,0-1Z"/>
  </g>
</svg>
