<svg id="audio" xmlns="http://www.w3.org/2000/svg" width="24" height="24" viewBox="0 0 24 24">
  <path id="Caminho_5" data-name="Caminho 5" d="M0,0H24V24H0Z" fill="none"/>
  <g id="Caminho_6" data-name="Caminho 6">
    <path d="M 10.00084972381592 22.00123023986816 C 8.528389930725098 22.00123023986816 7.137550354003906 21.35552978515625 6.184970378875732 20.22970008850098 C 5.231130123138428 19.10238075256348 4.826130390167236 17.60971069335938 5.073800086975098 16.13442993164063 C 5.371200084686279 14.39954090118408 6.650200366973877 12.89129066467285 8.332770347595215 12.28858089447021 L 8.336380004882813 12.28729057312012 L 8.339990615844727 12.28602027893066 C 8.883180618286133 12.09613037109375 9.440040588378906 11.99984073638916 9.995120048522949 11.99984073638916 C 10.33101463317871 11.99984073638916 10.66788673400879 12.03592109680176 11 12.10652446746826 L 11 5.000000476837158 C 11 3.34579062461853 12.34578990936279 2.000000476837158 14 2.000000476837158 L 16 2.000000476837158 C 17.65421104431152 2.000000476837158 19 3.34579062461853 19 5.000000476837158 C 19 6.654210567474365 17.65421104431152 8.000000953674316 16 8.000000953674316 L 15 8.000000953674316 L 15 16.85000038146973 C 15 18.05066108703613 14.587890625 19.2248706817627 13.83958053588867 20.15631103515625 C 13.06707000732422 21.11787033081055 11.98980045318604 21.75052070617676 10.80622005462646 21.93772125244141 C 10.53845977783203 21.97990036010742 10.26770973205566 22.00123023986816 10.00084972381592 22.00123023986816 Z" stroke="none"/>
    <path d="M 14 3 C 12.90000057220459 3 12 3.899999618530273 12 5 L 12 13.55000019073486 C 11.40676307678223 13.20920467376709 10.72589683532715 12.99984455108643 9.995116233825684 12.99984455108643 C 9.567955017089844 12.99984455108643 9.123743057250977 13.07137489318848 8.670000076293945 13.23000049591064 C 7.329999923706055 13.71000099182129 6.30000114440918 14.90000057220459 6.059999465942383 16.29999923706055 C 5.63697624206543 18.81974983215332 7.565000534057617 21.0012321472168 10.0008544921875 21.0012321472168 C 10.21377182006836 21.0012321472168 10.4305534362793 20.98456573486328 10.65000057220459 20.95000076293945 C 12.61000061035156 20.64000129699707 14 18.84000015258789 14 16.85000038146973 L 14 7 L 16 7 C 17.10000038146973 7 18 6.100000381469727 18 5 C 18 3.899999618530273 17.10000038146973 3 16 3 L 14 3 M 14 1 L 16 1 C 18.20561027526855 1 20 2.794389724731445 20 5 C 20 7.205610275268555 18.20561027526855 9.000000953674316 16 9.000000953674316 L 16 16.85000038146973 C 16 18.27762031555176 15.50961017608643 19.67424011230469 14.61916065216064 20.7826099395752 C 13.69066047668457 21.93833160400391 12.3920202255249 22.6993408203125 10.96244049072266 22.92543983459473 C 10.64269065856934 22.97579956054688 10.31960010528564 23.00123023986816 10.00084972381592 23.00123023986816 C 8.233630180358887 23.00123023986816 6.564540863037109 22.22648048400879 5.421579360961914 20.87563133239746 C 4.277339935302734 19.52329063415527 3.791130065917969 17.73484039306641 4.087600708007813 15.96887016296387 L 4.088171005249023 15.96547031402588 L 4.088760375976563 15.96207046508789 C 4.266830444335938 14.92328071594238 4.73130989074707 13.94078063964844 5.431970596313477 13.12077045440674 C 6.120979309082031 12.31441020965576 7.007450103759766 11.70110034942627 7.995550155639648 11.3471508026123 L 8.002750396728516 11.34457015991211 L 8.009960174560547 11.34205055236816 C 8.659480094909668 11.11498069763184 9.327380180358887 10.99984073638916 9.995120048522949 10.99984073638916 C 9.996761322021484 10.99984073638916 9.998358726501465 10.99984169006348 10 10.99984359741211 L 10 5 C 10 2.794389724731445 11.79438972473145 1 14 1 Z" stroke="none" fill="#fff"/>
  </g>
  <g id="Caminho_9" data-name="Caminho 9" transform="translate(-2 11)">
    <path d="M 17.97203063964844 10.49015998840332 C 17.16035079956055 10.49015998840332 16.5 9.826160430908203 16.5 9.010000228881836 L 16.5 7.5 L 14.98999977111816 7.5 C 14.1684103012085 7.5 13.5 6.831590175628662 13.5 6.010000228881836 L 13.5 5.980000019073486 L 13.5 5.975369930267334 L 13.50008964538574 5.970739841461182 C 13.51509952545166 5.159770011901855 14.18348026275635 4.5 14.98999977111816 4.5 L 16.5 4.5 L 16.5 2.980000019073486 C 16.5 2.16392993927002 17.16840934753418 1.5 17.98999977111816 1.5 L 18.02000045776367 1.5 C 18.83606910705566 1.5 19.5 2.16392993927002 19.5 2.980000019073486 L 19.5 4.5 L 21.02000045776367 4.5 C 21.83606910705566 4.5 22.5 5.16392993927002 22.5 5.980000019073486 L 22.5 6.019999980926514 C 22.5 6.83607006072998 21.83606910705566 7.5 21.02000045776367 7.5 L 19.5 7.5 L 19.5 9.010000228881836 C 19.5 9.826069831848145 18.83606910705566 10.48999977111816 18.02000045776367 10.48999977111816 L 17.99007034301758 10.48999977111816 L 17.97203063964844 10.49015998840332 Z" stroke="none"/>
    <path d="M 17.98999977111816 2 C 17.44000053405762 2 17 2.439999580383301 17 2.979999542236328 L 17 5 L 14.98999977111816 5 C 14.45000076293945 5 14.01000022888184 5.440000057220459 14 5.980000019073486 L 14 6.010000228881836 C 14 6.559999942779541 14.44000053405762 7 14.98999977111816 7 L 17 7 L 17 9.010000228881836 C 17 9.544099807739258 17.43045043945313 9.990163803100586 17.97202491760254 9.990163803100586 C 17.97800827026367 9.990163803100586 17.9839916229248 9.990109443664551 17.98999977111816 9.989999771118164 L 18.02000045776367 9.989999771118164 C 18.55999946594238 9.989999771118164 19 9.550000190734863 19 9.010000228881836 L 19 7 L 21.02000045776367 7 C 21.56000137329102 7 22 6.559999942779541 22 6.019999980926514 L 22 5.980000019073486 C 22 5.440000057220459 21.56000137329102 5 21.02000045776367 5 L 19 5 L 19 2.979999542236328 C 19 2.439999580383301 18.55999946594238 2 18.02000045776367 2 L 17.98999977111816 2 M 17.98999977111816 1 L 18.02000045776367 1 C 19.11178016662598 1 20 1.888219833374023 20 2.979999542236328 L 20 4 L 21.02000045776367 4 C 22.11178016662598 4 23 4.888219833374023 23 5.980000019073486 L 23 6.019999980926514 C 23 7.111780166625977 22.11178016662598 8 21.02000045776367 8 L 20 8 L 20 9.010000228881836 C 20 10.10177993774414 19.11178016662598 10.98999977111816 18.02000045776367 10.98999977111816 L 17.99725151062012 10.98999977111816 C 17.98883056640625 10.9901065826416 17.98043060302734 10.99015998840332 17.97203063964844 10.99015998840332 C 16.8846492767334 10.99015998840332 16 10.10186004638672 16 9.010000228881836 L 16 8 L 14.98999977111816 8 C 13.89270973205566 8 13 7.107289791107178 13 6.010000228881836 L 13 5.980000019073486 L 13 5.970739841461182 L 13.00016975402832 5.961480140686035 C 13.02020072937012 4.87992000579834 13.9128303527832 4 14.98999977111816 4 L 16 4 L 16 2.979999542236328 C 16 1.888219833374023 16.89270973205566 1 17.98999977111816 1 Z" stroke="none" fill="#fff"/>
  </g>
</svg>
