<svg id="video" xmlns="http://www.w3.org/2000/svg" width="24" height="24" viewBox="0 0 24 24">
  <path id="Caminho_12" data-name="Caminho 12" d="M0,0H24V24H0Z" fill="none"/>
  <path id="Caminho_13" data-name="Caminho 13" d="M18,4l1.82,3.64A.252.252,0,0,1,19.6,8H17.62a.977.977,0,0,1-.89-.55L15,4H13l1.82,3.64A.252.252,0,0,1,14.6,8H12.62a.977.977,0,0,1-.89-.55L10,4H8L9.82,7.64A.252.252,0,0,1,9.6,8H7.62a1,1,0,0,1-.9-.55L5,4H4A2.006,2.006,0,0,0,2,6V18a2.006,2.006,0,0,0,2,2H20a2.006,2.006,0,0,0,2-2V5a1,1,0,0,0-1-1Z"/>
  <g id="Caminho_25" data-name="Caminho 25" transform="translate(1 8)">
    <path d="M 17.97203063964844 10.49015998840332 C 17.16035079956055 10.49015998840332 16.5 9.826160430908203 16.5 9.010000228881836 L 16.5 7.5 L 14.98999977111816 7.5 C 14.1684103012085 7.5 13.5 6.831590175628662 13.5 6.010000228881836 L 13.5 5.980000019073486 L 13.5 5.975369930267334 L 13.50008964538574 5.970739841461182 C 13.51509952545166 5.159770011901855 14.18348026275635 4.5 14.98999977111816 4.5 L 16.5 4.5 L 16.5 2.980000019073486 C 16.5 2.16392993927002 17.16840934753418 1.5 17.98999977111816 1.5 L 18.02000045776367 1.5 C 18.83606910705566 1.5 19.5 2.16392993927002 19.5 2.980000019073486 L 19.5 4.5 L 21.02000045776367 4.5 C 21.83606910705566 4.5 22.5 5.16392993927002 22.5 5.980000019073486 L 22.5 6.019999980926514 C 22.5 6.83607006072998 21.83606910705566 7.5 21.02000045776367 7.5 L 19.5 7.5 L 19.5 9.010000228881836 C 19.5 9.826069831848145 18.83606910705566 10.48999977111816 18.02000045776367 10.48999977111816 L 17.99007034301758 10.48999977111816 L 17.97203063964844 10.49015998840332 Z" stroke="none"/>
    <path d="M 17.98999977111816 2 C 17.44000053405762 2 17 2.439999580383301 17 2.979999542236328 L 17 5 L 14.98999977111816 5 C 14.45000076293945 5 14.01000022888184 5.440000057220459 14 5.980000019073486 L 14 6.010000228881836 C 14 6.559999942779541 14.44000053405762 7 14.98999977111816 7 L 17 7 L 17 9.010000228881836 C 17 9.544099807739258 17.43045043945313 9.990163803100586 17.97202491760254 9.990163803100586 C 17.97800827026367 9.990163803100586 17.9839916229248 9.990109443664551 17.98999977111816 9.989999771118164 L 18.02000045776367 9.989999771118164 C 18.55999946594238 9.989999771118164 19 9.550000190734863 19 9.010000228881836 L 19 7 L 21.02000045776367 7 C 21.56000137329102 7 22 6.559999942779541 22 6.019999980926514 L 22 5.980000019073486 C 22 5.440000057220459 21.56000137329102 5 21.02000045776367 5 L 19 5 L 19 2.979999542236328 C 19 2.439999580383301 18.55999946594238 2 18.02000045776367 2 L 17.98999977111816 2 M 17.98999977111816 1 L 18.02000045776367 1 C 19.11178016662598 1 20 1.888219833374023 20 2.979999542236328 L 20 4 L 21.02000045776367 4 C 22.11178016662598 4 23 4.888219833374023 23 5.980000019073486 L 23 6.019999980926514 C 23 7.111780166625977 22.11178016662598 8 21.02000045776367 8 L 20 8 L 20 9.010000228881836 C 20 10.10177993774414 19.11178016662598 10.98999977111816 18.02000045776367 10.98999977111816 L 17.99725151062012 10.98999977111816 C 17.98883056640625 10.9901065826416 17.98043060302734 10.99015998840332 17.97203063964844 10.99015998840332 C 16.8846492767334 10.99015998840332 16 10.10186004638672 16 9.010000228881836 L 16 8 L 14.98999977111816 8 C 13.89270973205566 8 13 7.107289791107178 13 6.010000228881836 L 13 5.980000019073486 L 13 5.970739841461182 L 13.00016975402832 5.961480140686035 C 13.02020072937012 4.87992000579834 13.9128303527832 4 14.98999977111816 4 L 16 4 L 16 2.979999542236328 C 16 1.888219833374023 16.89270973205566 1 17.98999977111816 1 Z" stroke="none" fill="#fff"/>
  </g>
</svg>
